<svg xmlns="http://www.w3.org/2000/svg" viewBox="0 0 122 122" class="Chain_Chain__icon__u4HEV" title="Optimism"><circle cx="61" cy="61" r="61" fill="#ff0420"></circle><path fill="#fff" d="M43.201 77.177a14.656 14.656 0 0 1-8.924-2.563 8.762 8.762 0 0 1-3.432-7.413c.014-.828.09-1.654.229-2.471.397-2.2.961-4.839 1.693-7.917 2.075-8.39 7.429-12.585 16.062-12.585 2.164-.035 4.312.37 6.315 1.19a9.6 9.6 0 0 1 4.393 3.478 9.333 9.333 0 0 1 1.6 5.492 16.295 16.295 0 0 1-.229 2.425 104.188 104.188 0 0 1-1.647 7.917c-1.067 4.18-2.912 7.306-5.537 9.381-2.622 2.044-6.13 3.066-10.523 3.066Zm.641-6.59a6.5 6.5 0 0 0 4.348-1.51 8.424 8.424 0 0 0 2.608-4.622c.702-2.867 1.235-5.368 1.6-7.505.123-.649.184-1.308.183-1.968 0-2.777-1.449-4.165-4.347-4.164a6.681 6.681 0 0 0-4.393 1.51 8.573 8.573 0 0 0-2.563 4.622c-.55 2.044-1.098 4.546-1.647 7.505a9.787 9.787 0 0 0-.183 1.922c0 2.807 1.465 4.21 4.394 4.21ZM63.245 76.72a.97.97 0 0 1-.778-.32 1.1 1.1 0 0 1-.137-.824l6.315-29.746a1.31 1.31 0 0 1 .5-.824 1.4 1.4 0 0 1 .87-.32h12.173c2.866-.14 5.707.594 8.146 2.105a6.9 6.9 0 0 1 3.112 6.087c-.004.801-.097 1.6-.275 2.38a12.39 12.39 0 0 1-4.622 7.78c-2.288 1.678-5.43 2.517-9.427 2.517h-6.177L70.84 75.577a1.311 1.311 0 0 1-.5.824 1.4 1.4 0 0 1-.869.32l-6.226-.001Zm16.2-17.482a5.451 5.451 0 0 0 3.341-1.052 4.942 4.942 0 0 0 1.922-3.02c.085-.453.13-.912.137-1.373a2.543 2.543 0 0 0-.778-2.014 3.836 3.836 0 0 0-2.654-.732h-5.491l-1.739 8.191h5.262Z"></path></svg>